<?xml version="1.0" encoding="UTF-8" standalone="no"?>
<!-- Created with Inkscape (http://www.inkscape.org/) -->

<svg
   width="60.130253mm"
   height="60.358665mm"
   viewBox="0 0 60.130253 60.358666"
   version="1.1"
   id="svg5"
   xml:space="preserve"
   xmlns:inkscape="http://www.inkscape.org/namespaces/inkscape"
   xmlns:sodipodi="http://sodipodi.sourceforge.net/DTD/sodipodi-0.dtd"
   xmlns="http://www.w3.org/2000/svg"
   xmlns:svg="http://www.w3.org/2000/svg"><sodipodi:namedview
     id="namedview7"
     pagecolor="#ffffff"
     bordercolor="#666666"
     borderopacity="1.0"
     inkscape:showpageshadow="2"
     inkscape:pageopacity="0.0"
     inkscape:pagecheckerboard="0"
     inkscape:deskcolor="#d1d1d1"
     inkscape:document-units="mm"
     showgrid="false" /><defs
     id="defs2" /><g
     inkscape:label="Layer 1"
     inkscape:groupmode="layer"
     id="layer1"
     transform="translate(-90.820993,-95.82065)"><path
       style="fill:#000000;stroke-width:0.0846667"
       d="m 118.77945,156.04723 c -0.16298,-0.0184 -0.71543,-0.0751 -1.22767,-0.12616 -23.078234,-2.29854 -34.760956,-29.82114 -20.523082,-48.34904 2.167896,-2.82111 2.19724,-2.83447 3.446272,-1.5685 1.10906,1.1241 1.09693,1.07281 0.42815,1.81048 -14.315567,15.79012 -5.410975,41.31813 15.63266,44.81627 0.85208,0.14165 0.89354,0.16605 0.51284,0.3019 -0.98401,0.35113 -4.54394,-0.52841 -7.44519,-1.83946 -7.7308,-3.49348 -13.347671,-10.14753 -15.465699,-18.32153 -0.360736,-1.39217 -0.427937,-1.4553 -0.167441,-0.15731 3.57604,17.81859 25.26239,26.83137 41.46671,17.23343 3.85166,-2.28136 8.81804,-7.26728 8.24996,-8.28239 -0.066,-0.11792 -0.14507,-0.0115 -0.42235,0.56826 -1.77593,3.71342 -8.75007,8.65307 -14.5037,10.2727 -3.27309,0.92136 -9.13555,1.3826 -10.51163,0.82702 -0.79593,-0.32134 -0.55991,-0.37002 1.49116,-0.30755 9.00205,0.2742 17.37146,-3.60298 22.48756,-10.41749 1.00824,-1.34295 1.06042,-1.31595 -0.81343,-0.421 l -1.2832,0.61286 1.7e-4,-2.22866 c 8e-5,-1.59094 0.029,-2.26814 0.10103,-2.36664 0.0843,-0.11528 4.63474,-1.31156 4.98896,-1.31156 0.1013,0 2.40386,2.25768 2.5211,2.47197 0.32463,0.59333 -2.72008,5.08989 -5.16028,7.62089 -6.0806,6.30691 -15.83134,10.05987 -23.8029,9.16151 z M 93.458483,128.94732 c -0.749205,-7.22409 1.531818,-15.03514 6.010137,-20.58088 0.69417,-0.85962 0.89577,-1.20691 0.7006,-1.20691 -0.089,0 -1.460246,1.70324 -2.113072,2.62466 -3.791151,5.35096 -5.590059,12.5936 -4.72641,19.02916 0.194608,1.45014 0.27379,1.53254 0.128745,0.13397 z m 24.093297,23.5062 c -0.18626,-0.0378 -0.71966,-0.20023 -1.18533,-0.36088 -0.46567,-0.16066 -2.17693,-0.7351 -3.8028,-1.27655 -3.84582,-1.28073 -4.09182,-1.42935 -5.55316,-3.35523 -0.66126,-0.87146 -0.81754,-1.14164 -1.13439,-1.96107 -0.11412,-0.29513 -0.46151,-1.1462 -0.77199,-1.89126 -0.31048,-0.74507 -0.76556,-1.84997 -1.01129,-2.45534 -0.24573,-0.60536 -0.81777,-1.99601 -1.27122,-3.09033 -0.45344,-1.09432 -1.13,-2.73262 -1.50347,-3.64067 -0.37348,-0.90805 -0.86078,-2.08915 -1.08291,-2.62466 -0.441681,-1.06485 -0.513303,-1.32549 -0.542442,-1.97407 -0.02913,-0.64846 0.184708,-0.30301 0.844462,1.36418 0.65194,1.64743 0.92595,2.2017 1.19181,2.41083 0.11095,0.0873 0.20258,0.20354 0.20362,0.25837 0.009,0.45522 0.30895,0.50141 0.71217,0.10953 0.22118,-0.21496 0.43589,-0.39084 0.47712,-0.39084 0.0697,0 2.84449,-3.41714 3.29067,-4.05242 0.11,-0.15661 0.33182,-0.33982 0.49295,-0.40715 l 0.29295,-0.1224 -0.49604,-0.5259 c -2.57221,-2.727 -5.33012,-2.79534 -6.43581,-0.15948 -0.416176,0.99215 -0.594484,1.16113 -0.53755,0.50944 0.113977,-1.3046 1.19722,-2.38757 2.7003,-2.69961 1.11386,-0.23123 1.54368,-0.013 5.41576,2.75045 1.18071,0.84264 2.28561,1.62963 2.45533,1.74888 0.16973,0.11925 1.58495,1.12641 3.14493,2.23813 6.86586,4.89294 7.90806,5.61098 9.14902,6.30334 0.7048,0.39322 1.45254,0.8366 1.66166,0.98527 l 0.38021,0.27033 -0.39959,-0.045 c -0.31752,-0.0358 -0.39158,-0.0208 -0.36059,0.0731 0.0777,0.23512 1.67662,0.54961 1.67662,0.32976 0,-0.0474 0.2317,-0.0847 0.52577,-0.0847 h 0.52576 l -3.30758,-3.32317 c -4.26706,-4.28715 -4.66711,-5.08085 -3.04121,-6.0337 1.05004,-0.61536 1.21528,-0.50239 5.47953,3.74636 3.1481,3.13666 3.62203,3.57788 3.6952,3.44016 0.0462,-0.0869 0.97942,-2.08204 2.07391,-4.43365 1.09448,-2.35162 2.7333,-5.85682 3.64182,-7.78934 0.90852,-1.93251 2.22502,-4.73286 2.92556,-6.223 1.85957,-3.95552 2.12971,-4.35861 3.00941,-4.49053 1.26598,-0.18985 2.15256,0.92165 1.73147,2.17073 -0.0913,0.27086 -7.2179,15.58454 -9.17661,19.7188 -1.17397,2.4779 -1.11631,2.32008 -0.82495,2.25776 1.78172,-0.38111 4.71551,-1.08502 4.97625,-1.19397 0.82025,-0.34272 0.889,-0.15043 0.889,2.48631 0,2.20144 -0.0608,2.54491 -0.45064,2.54625 -0.0548,1.6e-4 -0.53784,0.21308 -1.07336,0.4731 -0.53551,0.26003 -1.22131,0.58795 -1.524,0.72872 -0.30268,0.14077 -1.02658,0.4851 -1.60866,0.76518 -5.09384,2.451 -7.60392,3.6563 -9.69434,4.65506 -1.07103,0.51171 -2.48383,1.19084 -3.13956,1.50917 -1.61304,0.78306 -2.54499,0.97689 -3.63377,0.75575 z m -0.46566,-0.84672 c 0,-0.0481 -0.0857,-0.12534 -0.1905,-0.17172 -0.18228,-0.0807 -0.18137,-0.0822 0.0212,-0.0342 0.11641,0.0276 0.36662,0.0709 0.556,0.0963 l 0.34434,0.0462 0.74706,-1.85076 c 0.41089,-1.01793 0.87288,-2.15557 1.02665,-2.5281 0.48755,-1.18118 1.04709,-2.61479 1.02767,-2.63303 -0.0216,-0.0203 -6.01179,-1.21931 -6.09151,-1.21931 -0.0491,0 -0.51758,0.86171 -1.58801,2.921 -1.28701,2.47594 -1.65261,3.10841 -1.67791,2.90271 -0.0164,-0.13339 0.41005,-1.06516 1.2065,-2.63607 1.10058,-2.1708 1.39988,-2.87813 1.15336,-2.72577 -0.0432,0.0267 -0.24538,0.38136 -0.44934,0.78816 -0.20396,0.4068 -0.71736,1.40639 -1.14089,2.22131 -0.42353,0.81491 -0.79656,1.61501 -0.82896,1.778 -0.0324,0.16298 -0.11233,0.38071 -0.17761,0.48385 -0.26498,0.41866 0.16169,0.94261 1.00916,1.23924 3.17962,1.11294 5.05282,1.6031 5.05282,1.32218 z m 2.35068,-0.11793 c 0.24513,-0.0652 0.61218,-0.21621 0.81567,-0.33547 0.2035,-0.11926 1.01259,-0.51713 1.79799,-0.88417 0.78539,-0.36704 1.77089,-0.83316 2.18999,-1.03582 0.4191,-0.20267 0.77094,-0.37266 0.78186,-0.37777 0.0109,-0.005 0.15554,-0.5401 0.32136,-1.18887 0.16583,-0.64877 0.36079,-1.36302 0.43326,-1.58723 0.16752,-0.51825 0.25934,-0.46484 -1.34646,-0.78315 -0.75645,-0.14995 -1.65407,-0.33389 -1.99472,-0.40875 -0.93536,-0.20556 -0.87812,-0.23588 -1.22138,0.64705 -0.40348,1.03783 -1.55554,3.85491 -2.04442,4.99912 -0.51804,1.21246 -0.53065,1.16736 0.26685,0.95506 z m 3.28751,-1.0007 c 2.195,-1.04676 2.77283,-1.37359 3.15484,-1.78438 0.37002,-0.39791 0.10501,-0.41644 -0.34358,-0.024 -0.40982,0.35851 -4.09992,2.21289 -5.07788,2.55178 -0.20125,0.0697 -0.41595,0.14495 -0.47711,0.16712 -0.21416,0.0777 0.006,0.22948 0.27013,0.18628 0.14542,-0.0238 1.25854,-0.51734 2.4736,-1.09678 z m -3.79567,0.16886 c 0.0469,-0.0582 0.11306,-0.23919 0.14705,-0.40217 0.034,-0.16298 0.43929,-1.23878 0.90066,-2.39066 0.86095,-2.14947 1.02557,-2.65405 0.84642,-2.59433 -0.11641,0.0388 -2.00058,4.71014 -2.08752,5.17549 -0.0602,0.32212 0.0273,0.41785 0.19339,0.21167 z m -9.12386,-1.54815 c 0,-0.10227 0.0349,-0.11129 0.16377,-0.0423 0.31793,0.17015 0.4643,0.0929 0.68451,-0.36139 0.31337,-0.64647 2.25765,-4.41635 2.59907,-5.03953 0.16138,-0.29455 0.28042,-0.54638 0.26454,-0.55961 -0.18958,-0.15789 -6.46825,-1.2974 -6.53099,-1.1853 -0.0406,0.0726 -0.28232,0.44344 -0.53706,0.82402 -0.25988,0.38827 -0.44674,0.75477 -0.42575,0.83505 0.0264,0.10087 -7.6e-4,0.12842 -0.092,0.0934 -0.47919,-0.18388 0.51874,2.11342 1.53165,3.52593 1.07974,1.50572 2.34225,2.53511 2.34225,1.90975 z m 17.21135,-1.18614 c 0.24291,-0.11593 0.59405,-0.3041 0.78032,-0.41815 0.18626,-0.11405 0.72829,-0.37057 1.20449,-0.57005 0.4762,-0.19947 0.86673,-0.40333 0.86783,-0.45301 0.002,-0.0714 -2.67801,-0.67167 -2.99826,-0.67167 -0.0436,0 -0.14556,0.24765 -0.22659,0.55033 -0.081,0.30269 -0.20378,0.70274 -0.2728,0.889 -0.3843,1.03716 -0.30039,1.12478 0.64501,0.67355 z m 5.96934,-2.8856 c 0.91794,-0.44828 1.67874,-0.82317 1.69068,-0.83309 0.0119,-0.01 0.0786,-0.47182 0.14808,-1.02645 0.0695,-0.55462 0.18869,-1.43825 0.26486,-1.96361 0.17145,-1.18252 0.2921,-1.11732 -1.33803,-0.72309 l -1.3759,0.33275 -0.39806,1.68877 c -0.21893,0.92883 -0.47703,1.99357 -0.57356,2.36611 -0.17679,0.68234 -0.21646,0.97366 -0.13257,0.97366 0.025,0 0.79656,-0.36677 1.7145,-0.81505 z m 0.78957,0.13001 c 1.07301,-0.52765 1.76841,-1.00961 1.76841,-1.22563 0,-0.19474 -0.14557,-0.14236 -0.50378,0.18127 -0.3215,0.29045 -1.97108,1.15933 -2.4103,1.26956 -0.1164,0.0292 -0.25597,0.10654 -0.31015,0.17182 -0.23443,0.28246 0.45812,0.0936 1.45582,-0.39702 z m -3.13626,-1.03856 0.29317,-1.38493 -0.23401,0.17301 c -0.60841,0.44982 -1.59884,0.27032 -2.2596,-0.40952 -0.4896,-0.50375 -0.56632,-0.54232 -0.62997,-0.31679 -0.023,0.0815 -0.20326,0.71024 -0.40059,1.39722 -0.19733,0.68698 -0.34065,1.26719 -0.3185,1.28934 0.0344,0.0344 1.35142,0.32518 2.48517,0.54866 0.81458,0.16056 0.73534,0.25712 1.06433,-1.29699 z m -4.07154,-0.85873 c 0.20016,-0.74507 0.38054,-1.41543 0.40084,-1.4897 0.031,-0.11326 -0.0835,-0.14424 -0.71036,-0.19216 -1.10078,-0.0841 -1.93927,-0.31029 -2.51424,-0.6781 -0.27236,-0.17422 -0.50582,-0.30505 -0.51881,-0.29074 -0.0897,0.0989 -1.3308,3.21562 -1.29184,3.24423 0.0119,0.009 0.36452,0.0807 0.78362,0.1599 0.4191,0.0792 1.08585,0.22338 1.48166,0.32035 0.97833,0.2397 1.89433,0.39558 1.9551,0.33271 0.0276,-0.0285 0.21387,-0.66142 0.41403,-1.40649 z m -6.45377,0.4445 c -0.0191,-0.0582 -0.14611,-0.11876 -0.28222,-0.13456 -0.13611,-0.0158 -1.08327,-0.19677 -2.10481,-0.40216 -1.02154,-0.2054 -1.96769,-0.37345 -2.10256,-0.37345 -0.39572,0 -0.22656,0.20242 0.24087,0.28822 0.22937,0.0421 1.12188,0.2193 1.98337,0.39377 1.68234,0.34072 2.32351,0.4053 2.26535,0.22818 z m 1.60734,-1.8415 c 0.64678,-1.60899 0.68695,-1.74374 0.55034,-1.84624 -0.0811,-0.0608 -0.49027,-0.29642 -0.90937,-0.52356 -0.4191,-0.22715 -1.40808,-0.87069 -2.19773,-1.43009 l -1.43573,-1.01711 -0.2419,0.44 c -0.13305,0.242 -0.39873,0.7448 -0.59041,1.11733 -0.19168,0.37254 -0.70357,1.34872 -1.13753,2.1693 -0.83864,1.58575 -0.90077,1.7677 -0.60363,1.7677 0.23761,0 0.94096,0.133 2.26993,0.42923 0.92858,0.20698 2.41883,0.50775 3.048,0.61516 0.52854,0.0902 0.50862,0.11772 1.24803,-1.72172 z m 14.77748,1.46975 c 0.33632,-0.16954 0.75436,-0.37998 0.92899,-0.46764 l 0.3175,-0.1594 v -1.56435 c 0,-1.78112 0.0777,-1.64763 -0.82927,-1.425 -0.74568,0.18304 -0.75333,0.19143 -0.82169,0.90134 -0.0323,0.33566 -0.11001,0.9151 -0.17263,1.28763 -0.32061,1.90726 -0.32978,1.88458 0.5771,1.42742 z m 1.0809,-0.0516 c 0.67787,-0.40381 1.08422,-1.41443 0.76878,-1.91204 -0.0786,-0.12393 -0.26452,0.48564 -0.26452,0.86708 0,0.30456 -0.4358,0.76021 -0.93072,0.97312 -0.23317,0.10031 -0.42395,0.21942 -0.42395,0.26469 0,0.16599 0.40047,0.0752 0.85041,-0.19285 z m -31.48502,-1.16063 c 0.25793,-0.41676 0.39891,-0.54695 0.8255,-0.76229 0.46729,-0.23588 0.60397,-0.3935 0.46326,-0.53421 -0.0281,-0.0282 -0.25701,0.0498 -0.50857,0.17314 -0.43141,0.21158 -0.47058,0.21676 -0.68965,0.0912 -0.1638,-0.0939 -0.30467,-0.11277 -0.47793,-0.0641 -0.39748,0.11158 -0.86278,-0.28827 -1.26905,-1.09055 -0.28229,-0.55743 -1.74495,-4.12963 -1.74495,-4.26161 0,-0.25024 0.19452,0.12044 0.63015,1.20083 1.15492,2.86431 1.39103,3.41076 1.49852,3.46827 0.49108,0.26271 1.79319,0.42006 1.92592,0.23273 0.075,-0.10589 0.58842,-0.8974 1.14088,-1.7589 0.55245,-0.8615 1.12756,-1.75686 1.278,-1.9897 0.26859,-0.41566 0.57579,-0.89382 1.49586,-2.32833 0.9355,-1.45856 1.02241,-1.6114 0.97961,-1.72292 -0.16384,-0.42696 -4.6628,-3.37988 -4.83429,-3.17301 -2.01453,2.43016 -4.29129,5.36684 -4.25838,5.49268 0.0273,0.10457 0.003,0.1384 -0.0775,0.10752 -0.27982,-0.10737 -0.11553,0.4341 0.81391,2.6824 0.80105,1.93772 1.02878,2.39557 1.51807,3.05205 0.22394,0.30045 0.4367,0.64153 0.47281,0.75795 0.31805,1.02554 0.41577,1.07654 0.81785,0.42687 z m 6.95437,0.15835 c -0.10248,-0.10248 -3.95709,-0.91634 -4.67277,-0.98662 -0.90346,-0.0887 -0.45884,0.17479 0.63172,0.37439 0.55493,0.10156 1.54236,0.2978 2.19429,0.43608 1.25715,0.26665 2.00897,0.33836 1.84676,0.17615 z m 1.24799,-0.60878 c 0.14676,-0.28973 0.79636,-1.54045 1.44355,-2.77939 0.64719,-1.23893 1.1767,-2.29248 1.1767,-2.34122 0,-0.098 -4.24842,-3.15317 -4.38466,-3.15317 -0.0469,0 -0.32517,0.37148 -0.61839,0.8255 -0.29322,0.45403 -0.80425,1.2446 -1.13562,1.75684 -0.33137,0.51223 -0.79071,1.22759 -1.02075,1.58968 -0.23003,0.36209 -0.80877,1.25697 -1.28608,1.98862 -1.0405,1.59494 -1.03053,1.40883 -0.0847,1.58047 0.79737,0.14469 1.26297,0.24132 3.66183,0.75995 2.09203,0.4523 1.89367,0.47236 2.24808,-0.22728 z m 1.60492,-1.75527 c 0.46979,-0.90759 0.99195,-1.94094 1.16036,-2.29633 0.20181,-0.42585 0.38805,-0.6945 0.54626,-0.78795 0.13202,-0.078 0.24005,-0.17017 0.24005,-0.20484 0,-0.53671 -4.63706,-3.94227 -4.86521,-3.57312 -0.0576,0.0932 0.0853,0.20295 0.54721,0.42003 0.49367,0.23201 2.89948,1.94961 3.36485,2.40229 0.4407,0.4287 0.54822,0.82589 0.29866,1.10331 -0.38321,0.42599 -2.30885,4.27752 -2.30885,4.618 0,0.24075 0.15104,-0.009 1.01667,-1.68139 z m 7.27896,0.0823 c -0.13263,-0.24782 -0.75353,-0.74174 -1.56463,-1.24464 -0.4191,-0.25985 -1.21966,-0.78384 -1.77903,-1.16442 -0.92366,-0.62843 -1.43117,-0.88278 -1.54144,-0.77251 -0.0821,0.0821 0.0764,0.22041 0.43428,0.3787 0.20156,0.0892 0.76196,0.43763 1.24533,0.77437 0.48337,0.33675 1.25804,0.84591 1.72147,1.13148 0.72079,0.44414 0.87254,0.57762 1.04958,0.92326 0.1958,0.38226 0.21528,0.39653 0.36116,0.26451 0.11405,-0.10321 0.13313,-0.17892 0.0733,-0.29075 z m -13.02421,-3.61131 c 1.25732,-1.97204 2.1359,-3.26776 2.25208,-3.32135 0.54448,-0.25112 -3.20339,-3.43855 -4.63853,-3.94489 -0.61854,-0.21824 -0.55565,0.041 0.0775,0.3192 0.39838,0.17508 3.26672,2.19647 3.8378,2.70458 0.40273,0.35834 0.50744,0.81262 0.24726,1.07281 -0.0959,0.0959 -0.27674,0.3376 -0.40184,0.5371 -0.1251,0.19949 -1.0075,1.57924 -1.9609,3.06611 -0.9534,1.48688 -1.787,2.83158 -1.85246,2.98823 -0.17655,0.42255 -0.0381,0.52705 0.18639,0.14069 0.10513,-0.18095 1.11887,-1.78406 2.25274,-3.56248 z m 20.32961,2.62284 c 0.39471,-0.37272 1.95184,-3.74247 2.78352,-6.02373 0.34916,-0.95772 0.0787,-0.55641 -0.68558,1.01728 -2.11694,4.35888 -2.09859,4.3248 -2.54516,4.7281 -0.23203,0.20955 -0.42186,0.43361 -0.42184,0.49791 5e-5,0.19484 0.58735,0.0465 0.86906,-0.21956 z m -4.11411,-1.20622 c -0.11259,-0.21145 -0.22797,-0.47971 -0.25639,-0.59613 -0.0564,-0.23085 -0.0298,-0.20127 -2.41824,-2.69284 -2.24652,-2.34352 -2.60493,-2.58903 -2.83551,-1.9423 -0.12133,0.34032 0.28899,0.81415 3.06223,3.53617 2.65262,2.60365 3.09468,2.90976 2.44791,1.6951 z m -23.93292,-4.13718 c 0,-0.0384 0.8382,-1.1136 1.86267,-2.38945 1.02447,-1.27586 1.86167,-2.35891 1.86045,-2.40678 -0.008,-0.30963 -2.467,-1.80251 -3.08923,-1.8754 -1.725,-0.20208 -3.15849,2.108 -2.32292,3.74341 0.35912,0.70289 1.20239,2.83547 1.1442,2.89366 -0.0674,0.0674 -0.97288,-2.06219 -1.37144,-3.2253 -0.719809,-2.10067 0.54984,-3.77705 2.86422,-3.78178 0.50395,-0.001 2.09756,0.9036 2.88322,1.63669 0.311,0.29019 0.32107,0.75421 0.0231,1.06495 -0.11535,0.12029 -0.76808,0.92357 -1.45051,1.78505 -1.51304,1.91001 -2.40376,2.85677 -2.40376,2.55495 z m 27.06985,-3.94545 c -5.00632,-2.05868 -4.40177,-10.25709 1.08182,-14.67058 9.99008,-8.04057 24.29758,-2.01845 19.35049,8.14475 -1.98622,4.08046 -8.03483,7.02932 -9.29633,4.53221 -0.57335,-1.13494 -0.11142,-1.76293 1.73904,-2.36422 5.69098,-1.84924 6.77237,-8.37898 1.71113,-10.33231 -8.01927,-3.09496 -18.99452,6.93557 -12.87267,11.76461 2.05198,1.61865 0.70423,3.91975 -1.71348,2.92554 z m 1.9322,-1.74819 c 0.031,-0.0501 -0.36125,-0.49546 -0.87608,-0.99483 -1.18725,-1.15159 -1.38707,-1.53057 -1.54336,-2.9272 -0.11425,-1.02095 -0.17998,-1.21624 -0.25949,-0.77094 -0.22208,1.24381 0.32733,2.67665 1.42003,3.70333 0.31024,0.2915 0.67896,0.65382 0.81938,0.80517 0.27337,0.29465 0.35123,0.32733 0.43952,0.18447 z m 10.73703,-1.39095 c 0.10659,-0.0698 0.45767,-0.21808 0.78019,-0.32942 6.33431,-2.18682 7.48289,-10.04888 1.78929,-12.24769 -1.34584,-0.51975 -3.15485,-0.76512 -4.08156,-0.55362 l -0.33867,0.0773 0.33867,0.0718 c 0.18627,0.0395 0.85302,0.10663 1.48167,0.14917 1.68866,0.11427 2.91325,0.53066 4.0215,1.3674 2.44607,1.8468 2.66995,5.73653 0.48025,8.34372 -1.02469,1.22006 -1.83836,1.72862 -4.16309,2.60201 -0.45123,0.16952 -0.7965,0.4373 -0.72113,0.55926 0.0741,0.11989 0.18539,0.10912 0.41288,-0.0399 z m -11.85597,-7.65176 c 1.38836,-2.00986 3.51367,-3.58627 6.39128,-4.74061 0.8732,-0.35028 0.84488,-0.41349 -0.0804,-0.17944 -2.74889,0.69532 -5.63626,2.99698 -6.87561,5.48086 -0.37637,0.75431 -0.49421,1.26314 -0.13237,0.57159 0.14618,-0.2794 0.45989,-0.78898 0.69712,-1.1324 z m -17.01475,8.11288 c -2.19073,-0.28568 -4.52338,-1.87057 -5.93063,-4.02948 -2.61556,-4.01261 -1.94563,-10.07511 0.96092,-8.69586 0.64056,0.30396 0.72613,0.58217 0.74493,2.42202 0.086,8.41465 9.11936,9.27784 11.08545,1.05926 0.29003,-1.21239 0.33605,-1.61204 0.3389,-2.94342 0.0151,-7.03686 -4.88029,-11.87352 -9.20203,-9.0917 -2.06154,1.32698 -3.61708,-1.15379 -1.82133,-2.90463 2.49027,-2.42799 7.31671,-1.80359 10.36233,1.34059 7.70406,7.95339 3.08293,24.0979 -6.53854,22.84322 z m 2.84626,-2.87844 c 4.68993,-1.30713 6.96332,-8.55989 4.60834,-14.70189 -0.94911,-2.47536 -3.29222,-4.90956 -5.03029,-5.22586 -0.23499,-0.0428 -0.19707,-0.0115 0.18321,0.15124 7.01137,2.99977 7.26503,17.20257 0.34863,19.51975 -3.55879,1.19229 -7.71686,-2.084 -7.72773,-6.08894 -9.5e-4,-0.34925 -0.0423,-0.78113 -0.0919,-0.95972 -0.067,-0.24134 -0.0624,-0.43295 0.0178,-0.74617 0.11788,-0.45992 0.0501,-0.68314 -0.22367,-0.73693 -0.13665,-0.0268 -0.14475,0.0111 -0.0813,0.381 0.0388,0.22595 0.0612,0.88707 0.0497,1.46915 -0.091,4.62262 3.86468,8.07618 7.94711,6.93837 z m -5.11636,-19.22809 c 1.09949,-0.7012 2.58665,-1.04905 3.76308,-0.88018 0.29633,0.0425 0.29633,0.0425 -0.0423,-0.0902 -0.87671,-0.34356 -2.39643,-0.0997 -3.52847,0.5663 -0.31083,0.18285 -0.60144,0.33246 -0.6458,0.33246 -0.15101,0 -0.2902,0.23256 -0.16843,0.28141 0.17758,0.0713 0.18538,0.0686 0.62195,-0.2098 z m 29.92507,19.56036 c 0,-0.0444 0.4424,-1.11738 0.9831,-2.38448 0.5407,-1.2671 1.08894,-2.58958 1.21831,-2.93883 0.50209,-1.35545 0.52166,-1.37562 1.05951,-1.09219 1.82842,0.96354 1.83034,2.78531 0.005,4.61079 -0.82505,0.82505 -3.26578,2.17382 -3.26578,1.80471 z m 2.06184,-2.00659 c 1.30573,-1.70374 1.35728,-1.79272 1.03844,-1.79272 -0.15695,0 -0.28183,0.12685 -0.56265,0.5715 -0.74578,1.18087 -0.98743,1.51699 -1.58513,2.20482 -0.33761,0.38852 -0.61383,0.73999 -0.61383,0.78106 0,0.16082 1.1503,-1.01717 1.72317,-1.76466 z m -29.9595,-0.5246 c -1.40284,-0.20596 -2.77234,-2.75943 -2.74323,-5.11483 0.0158,-1.27866 -0.13347,-1.35198 2.16542,1.06359 1.1244,1.18147 2.23826,2.33719 2.47525,2.56827 0.50062,0.48814 0.50612,0.50985 0.19806,0.78136 -0.61555,0.54253 -1.39698,0.80416 -2.0955,0.70161 z m 0.55033,-1.63484 c 0,-0.11202 -1.01521,-1.15289 -1.4605,-1.49742 -0.55701,-0.43097 -0.0452,0.51489 0.62822,1.16098 0.38723,0.37152 0.83228,0.55143 0.83228,0.33644 z m 3.11789,-0.34172 c -0.17111,-0.0626 -0.45686,-0.23093 -0.635,-0.37399 -0.8028,-0.64473 -14.58151,-14.56108 -14.80805,-14.95598 -0.83079,-1.44818 0.56218,-3.05199 2.02037,-2.32615 0.44376,0.22089 14.63403,14.39402 15.03338,15.01522 0.90505,1.40785 -0.16887,3.16864 -1.6107,2.6409 z m -4.7849,-6.73613 c 0.38782,-0.14746 0.35119,-0.56122 -0.0938,-1.05995 -0.8934,-1.00118 -3.10012,-3.09515 -3.2689,-3.10187 -0.0975,-0.004 -0.26298,-0.0166 -0.36775,-0.0282 -0.1685,-0.0187 -0.1905,0.0169 -0.1905,0.3079 0,0.28513 3.41422,3.96067 3.67908,3.96067 0.0194,0 0.12823,-0.0354 0.2419,-0.0786 z m 16.48368,-1.07087 c -3.21382,-0.84404 -4.27946,-2.93575 -4.48268,-8.79889 -0.15198,-4.384718 -1.21494,-5.002531 -7.06253,-4.104888 -3.42412,0.525624 -6.65757,1.653408 -9.51729,3.319498 -1.08333,0.63115 -1.01615,0.64803 -2.20104,-0.55292 -1.20714,-1.22351 -1.24143,-1.07021 0.46575,-2.082271 4.65124,-2.757382 10.31956,-4.266177 15.56717,-4.14368 1.85424,0.04328 2.30611,0.311436 6.57909,3.904205 3.3754,2.838076 3.5932,3.093536 3.36384,3.945336 -0.38041,1.41272 -1.69735,1.46332 -3.3816,0.12993 -0.39139,-0.30986 -0.68756,-0.50067 -0.65814,-0.42401 0.0294,0.0767 0.0931,0.64339 0.14163,1.25942 0.27484,3.49193 0.94834,4.62542 2.75213,4.63179 1.54521,0.005 2.29898,-1.02565 2.08856,-2.85701 -0.25595,-2.22769 2.10745,-2.91479 3.05573,-0.88837 1.6008,3.42083 -2.71975,7.70998 -6.71062,6.66186 z m 3.1866,-2.56933 c 0.90207,-0.40962 1.3851,-1.18654 1.45165,-2.33489 0.05,-0.86332 -0.0362,-0.78661 -0.19102,0.16999 -0.19089,1.17919 -0.85323,1.98436 -1.75039,2.12782 -0.18146,0.029 -0.35038,0.0859 -0.37538,0.12631 -0.0826,0.13366 0.50855,0.0727 0.86514,-0.0892 z m -6.26235,-5.46582 c -0.0925,-3.07372 -0.51233,-4.688118 -1.33354,-5.127619 -0.17581,-0.09409 -0.17441,-0.08493 0.0282,0.185115 0.66068,0.880714 0.81723,1.541424 0.90993,3.840094 0.0852,2.11321 0.22565,3.28903 0.36341,3.04287 0.0553,-0.0988 0.0667,-0.78894 0.032,-1.94046 z m -16.32808,-3.40021 c 4.00207,-1.836893 7.70864,-2.681875 11.57216,-2.63809 0.78631,0.0089 1.44206,-0.02164 1.56297,-0.07282 0.37492,-0.158698 -0.54532,-0.312697 -1.50739,-0.252255 -0.44967,0.02825 -1.25573,0.07342 -1.79124,0.100382 -3.79141,0.190875 -9.62686,2.026678 -11.43758,3.598193 -0.26166,0.22709 -0.23059,0.21835 0.33108,-0.0932 0.34091,-0.1891 0.91241,-0.4781 1.27,-0.64223 z m 37.18383,9.87431 c -0.16299,-0.0899 -0.69639,-0.29331 -1.18534,-0.45205 -0.79161,-0.25699 -1.16207,-0.34061 -2.29674,-0.51841 -0.26529,-0.0416 -0.40331,-0.16594 -1.01432,-0.91406 -2.20437,-2.69906 -5.44704,-5.29035 -8.55992,-6.84044 -0.38611,-0.19227 -0.87347,-0.51345 -1.08302,-0.71375 -0.37293,-0.35646 -1.74278,-1.529281 -2.96721,-2.540434 -0.33833,-0.2794 -0.81386,-0.67945 -1.05674,-0.889 -0.24288,-0.20955 -0.65215,-0.549972 -0.90949,-0.756494 -0.49116,-0.39417 -0.56041,-0.633985 -0.1589,-0.550255 7.63065,1.591255 14.28915,5.998133 18.73269,12.398083 0.92937,1.33855 0.92916,1.38388 -0.003,0.68389 -0.39786,-0.29873 -0.8737,-0.49808 -0.63664,-0.26673 0.27021,0.26371 1.43414,1.10684 1.52797,1.10684 0.0996,0 0.28813,0.24566 0.28813,0.37543 0,0.10392 -0.39683,0.0321 -0.67733,-0.12262 z m -6.49414,-6.23418 c -0.80197,-1.23767 -3.8352,-3.43311 -3.8352,-2.77591 0,0.17386 0.27354,0.44839 0.95529,0.95875 0.42921,0.32131 1.31348,1.00818 1.96505,1.52637 1.27659,1.01528 1.41224,1.05839 0.91486,0.29079 z"
       id="path424"
       class="UnoptimicedTransforms"
       inkscape:export-filename="avatar.svg"
       inkscape:export-xdpi="96"
       inkscape:export-ydpi="96" /></g></svg>
